# This file uses centimeters as units for non-parametric coordinates.

mtllib MuroSolo.mtl
g default
v -6.604304 5.897019 5.792333
v -5.673140 2.102979 5.692295
v -6.604304 5.897021 16.207666
v -5.673140 2.102981 16.307705
v -7.395696 5.897019 5.792333
v -8.326860 2.102979 5.692295
v -7.395696 5.897021 16.207666
v -8.326860 2.102981 16.307705
v -6.385637 3.121139 5.692295
v -7.614363 3.121141 16.307705
v -6.385637 3.121141 16.307705
v -7.614363 3.121139 5.692295
v -5.673140 2.376402 5.692295
v -5.673140 2.376404 16.307705
v -8.326860 2.376402 5.692295
v -8.326860 2.376404 16.307705
v -7.000709 4.500085 16.087222
v -6.829921 4.500085 16.258010
v -7.221193 3.121141 16.307705
v -7.171498 4.500085 16.258010
v -6.780226 3.121141 16.307705
v -7.221193 2.102981 16.307705
v -6.780226 2.102981 16.307705
v -7.000709 2.102981 16.087222
v -7.221193 2.376404 16.307705
v -6.780226 2.376404 16.307705
v -7.000709 2.103210 5.517097
v -7.000709 4.557524 5.517096
v -7.227673 4.557524 5.744060
v -7.175908 3.121139 5.692295
v -6.773746 4.557524 5.744060
v -6.825511 3.121139 5.692295
v -7.175908 2.376402 5.692295
v -6.825511 2.376402 5.692295
v -7.175908 2.103210 5.692295
v -6.825511 2.103210 5.692295
vt 0.142693 0.994770
vt 0.511935 0.000158
vt 0.272376 0.966991
vt 0.645993 0.429144
vt 0.293826 0.005536
vt 0.143750 0.962292
vt 0.641704 0.000317
vt 0.145222 0.721282
vt 0.689471 0.031688
vt 0.232972 0.005536
vt 0.612085 0.429144
vt 0.158835 0.571172
vt 0.689450 0.000158
vt 0.014863 0.570856
vt 0.526956 0.001874
vt 0.641571 0.117268
vt 0.001440 0.998310
vt 0.527131 0.033232
vt 0.526956 0.429144
vt 0.704743 0.428828
vt 0.729817 0.117135
vt 0.060084 0.890556
vt 0.105837 0.965148
vt 0.124457 0.988593
vt 0.689865 0.117135
vt 0.641767 0.031829
vt 0.444067 0.570857
vt 0.731013 0.999843
vt 0.665897 0.266319
vt 0.106980 0.994569
vt 0.665577 0.000189
vt 0.511935 0.570857
vt 0.526641 0.000158
vt 0.232972 0.565478
vt 0.526641 0.570857
vt 0.000158 0.570856
vt 0.526956 0.999842
vt 0.000158 0.000158
vt 0.014863 0.000158
vt 0.190501 0.878073
vt 0.272104 0.998310
vt 0.629039 0.440997
vt 0.648833 0.272799
vt 0.444067 0.000158
vt 0.804374 0.001040
vt 0.103686 0.886724
vt 0.293826 0.565478
vt 0.731013 0.429144
vt 0.627253 0.428828
vt 0.076339 0.575579
vt 0.804277 0.032405
vt 0.000158 0.972501
vt 0.082731 0.000158
vt 0.682969 0.272336
vt 0.143776 0.879303
vt 0.601814 0.117488
vt 0.121998 0.730630
vt 0.097870 0.723520
vt 0.082731 0.570856
vn 0.000000 1.000000 -0.000000
vn 0.000000 1.000000 -0.000000
vn 0.000000 1.000000 -0.000000
vn 0.000000 1.000000 -0.000000
vn 0.000000 0.036015 0.999351
vn 0.000000 0.036015 0.999351
vn 0.000000 0.036015 0.999351
vn 0.000000 0.036015 0.999351
vn 0.000000 0.036015 0.999351
vn 0.000000 0.036015 0.999351
vn 0.000000 0.036015 0.999351
vn 0.000000 0.036015 0.999351
vn -0.996912 0.078531 -0.000000
vn -0.996912 0.078531 -0.000000
vn -0.996912 0.078531 -0.000000
vn -0.996912 0.078531 -0.000000
vn 0.000000 -1.000000 0.000000
vn 0.000000 -1.000000 0.000000
vn 0.000000 -1.000000 0.000000
vn 0.000000 -1.000000 0.000000
vn 0.000000 -1.000000 0.000000
vn 0.000000 -1.000000 0.000000
vn 0.000000 -1.000000 0.000000
vn 0.996912 0.078531 -0.000000
vn 0.996912 0.078531 -0.000000
vn 0.996912 0.078531 -0.000000
vn 0.996912 0.078531 -0.000000
vn -0.000000 0.036015 -0.999351
vn -0.000000 0.036015 -0.999351
vn -0.000000 0.036015 -0.999351
vn -0.000000 0.036015 -0.999351
vn -0.000000 0.036015 -0.999351
vn -0.000000 0.036015 -0.999351
vn -0.000000 0.036015 -0.999351
vn -0.000000 0.036015 -0.999351
vn 0.000000 -0.000000 -1.000000
vn 0.000000 -0.000000 -1.000000
vn 0.000000 -0.000000 -1.000000
vn 0.000000 -0.000000 -1.000000
vn 0.000000 -0.000001 -1.000000
vn 0.000000 -0.000001 -1.000000
vn 0.000000 -0.000001 -1.000000
vn 0.000000 -0.000001 -1.000000
vn 0.722574 0.691293 -0.000000
vn 0.722574 0.691293 -0.000000
vn 0.722574 0.691293 -0.000000
vn 0.722574 0.691293 -0.000000
vn -0.722574 0.691293 -0.000000
vn -0.722574 0.691293 -0.000000
vn -0.722574 0.691293 -0.000000
vn -0.722574 0.691293 -0.000000
vn 0.000000 0.000000 1.000000
vn 0.000000 0.000000 1.000000
vn 0.000000 0.000000 1.000000
vn 0.000000 0.000000 1.000000
vn 0.000000 0.000000 1.000000
vn 0.000000 0.000000 1.000000
vn 0.000000 0.000000 1.000000
vn 0.000000 0.000000 1.000000
vn 0.000000 0.000000 1.000000
vn 0.000000 0.000000 1.000000
vn 0.000000 0.000000 1.000000
vn 0.000000 0.000000 1.000000
vn 0.000000 0.000000 1.000000
vn 0.000000 0.000000 1.000000
vn 0.000000 0.000000 1.000000
vn 0.000000 0.000000 1.000000
vn -1.000000 0.000000 -0.000000
vn -1.000000 0.000000 -0.000000
vn -1.000000 0.000000 -0.000000
vn -1.000000 0.000000 -0.000000
vn 1.000000 0.000000 0.000000
vn 1.000000 0.000000 0.000000
vn 1.000000 0.000000 0.000000
vn 1.000000 0.000000 0.000000
vn 0.000000 -0.000000 -1.000000
vn 0.000000 -0.000000 -1.000000
vn 0.000000 -0.000000 -1.000000
vn 0.000000 -0.000000 -1.000000
vn 0.000000 -0.000000 -1.000000
vn 0.000000 -0.000000 -1.000000
vn 0.000000 -0.000000 -1.000000
vn 0.000000 -0.000000 -1.000000
vn 0.707107 0.000000 0.707107
vn 0.707107 0.000000 0.707107
vn 0.707107 0.000000 0.707107
vn 0.707107 0.000000 0.707107
vn 0.707107 0.000000 0.707107
vn 0.707107 0.000000 0.707107
vn -0.707107 0.000000 0.707107
vn -0.707107 0.000000 0.707107
vn -0.707107 0.000000 0.707107
vn -0.707107 0.000000 0.707107
vn -0.707107 0.000000 0.707107
vn -0.707107 0.000000 0.707107
vn 0.000000 -1.000000 0.000000
vn 0.000000 -1.000000 0.000000
vn 0.000000 -1.000000 0.000000
vn -0.707107 -0.000000 -0.707107
vn -0.707107 -0.000000 -0.707107
vn -0.707107 -0.000000 -0.707107
vn -0.707107 -0.000000 -0.707107
vn -0.707107 -0.000000 -0.707107
vn -0.707107 -0.000000 -0.707107
vn 0.707107 -0.000000 -0.707107
vn 0.707107 -0.000000 -0.707107
vn 0.707107 -0.000000 -0.707107
vn 0.707107 -0.000000 -0.707107
vn 0.707107 -0.000000 -0.707107
vn 0.707107 -0.000000 -0.707107
vn 0.000000 -1.000000 0.000000
vn 0.000000 -1.000000 0.000000
vn 0.000000 -1.000000 0.000000
vn 0.000000 1.000000 -0.000000
vn 0.000000 1.000000 -0.000000
vn 0.000000 1.000000 -0.000000
s 1
g CementBarrier
usemtl lambert11SG
f 1/10/1 5/5/2 3/34/3
f 3/34/3 5/5/2 7/47/4
s 2
f 11/21/5 3/20/6 21/25/7
f 21/25/7 3/20/6 18/54/8
f 3/20/6 7/49/9 18/54/8
f 18/54/8 7/49/9 20/43/10
f 7/49/9 10/56/11 20/43/10
f 10/56/11 19/16/12 20/43/10
s 3
f 10/27/13 7/47/14 12/44/15
f 12/44/15 7/47/14 5/5/16
s 4
f 6/28/17 2/37/18 8/48/19
f 8/48/19 2/37/18 22/4/20
f 22/4/20 2/37/18 24/42/21
f 24/42/21 2/37/18 23/11/22
f 2/37/18 4/19/23 23/11/22
s 5
f 9/53/24 1/10/25 11/59/26
f 11/59/26 1/10/25 3/34/27
s 6
f 12/22/28 5/50/29 30/46/30
f 30/46/30 5/50/29 29/58/31
f 5/50/29 1/12/32 29/58/31
f 29/58/31 1/12/32 31/8/33
f 1/12/32 9/40/34 31/8/33
f 9/40/34 32/55/35 31/8/33
s 7
f 13/3/36 34/6/37 9/40/38
f 9/40/38 34/6/37 32/55/39
s 8
f 15/52/40 12/22/41 33/23/42
f 33/23/42 12/22/41 30/46/43
s 9
f 13/39/44 9/53/45 14/14/46
f 14/14/46 9/53/45 11/59/47
s 10
f 16/32/48 10/27/49 15/2/50
f 15/2/50 10/27/49 12/44/51
s 11
f 16/18/52 25/26/53 10/56/54
f 10/56/54 25/26/53 19/16/55
s 12
f 14/51/56 11/21/57 26/9/58
f 26/9/58 11/21/57 21/25/59
s 13
f 16/18/60 8/15/61 25/26/62
f 25/26/62 8/15/61 22/7/63
s 14
f 4/45/64 14/51/65 23/13/66
f 23/13/66 14/51/65 26/9/67
s 15
f 8/35/68 16/32/69 6/33/70
f 6/33/70 16/32/69 15/2/71
s 16
f 2/38/72 13/39/73 4/36/74
f 4/36/74 13/39/73 14/14/75
s 17
f 13/3/76 2/41/77 34/6/78
f 34/6/78 2/41/77 36/1/79
f 2/41/77 6/17/80 36/1/79
f 36/1/79 6/17/80 35/30/81
f 6/17/80 15/52/82 35/30/81
f 15/52/82 33/23/83 35/30/81
s 18
f 22/7/84 24/31/85 25/26/86
f 24/31/85 17/29/87 25/26/86
f 25/26/86 17/29/87 19/16/88
f 17/29/87 20/43/89 19/16/88
s 19
f 17/29/90 24/31/91 18/54/92
f 18/54/92 24/31/91 21/25/93
f 21/25/93 24/31/91 26/9/94
f 26/9/94 24/31/91 23/13/95
s off
f 20/43/96 17/29/97 18/54/98
s 20
f 29/58/99 28/57/100 30/46/101
f 28/57/100 27/24/102 30/46/101
f 30/46/101 27/24/102 33/23/103
f 27/24/102 35/30/104 33/23/103
s 21
f 31/8/105 32/55/106 28/57/107
f 28/57/107 32/55/106 27/24/108
f 32/55/106 34/6/109 27/24/108
f 27/24/108 34/6/109 36/1/110
s off
f 36/1/111 35/30/112 27/24/113
f 31/8/114 28/57/115 29/58/116
